0
SECTION
2
HEADER
9
$INSUNITS
70
4
9
$ACADVER
1
AC1014
9
$HANDSEED
5
FFFF
0
ENDSEC
0
SECTION
2
TABLES
0
TABLE
2
VPORT
5
8
100
AcDbSymbolTable
0
ENDTAB
0
TABLE
2
LTYPE
5
5
100
AcDbSymbolTable
0
LTYPE
5
14
100
AcDbSymbolTableRecord
100
AcDbLinetypeTableRecord
2
BYBLOCK
70
0
0
LTYPE
5
15
100
AcDbSymbolTableRecord
100
AcDbLinetypeTableRecord
2
BYLAYER
70
0
0
LTYPE
5
16
100
AcDbSymbolTableRecord
100
AcDbLinetypeTableRecord
2
DASHED
70
0
3
Dashed __ __ __ __ __ __ __ __ __ __ __ __ __ _
72
65
73
2
40
0.75
49
0.5
74
0
49
-0.25
74
0
0
ENDTAB
0
TABLE
2
LAYER
5
2
100
AcDbSymbolTable
70
3
0
LAYER
5
50
100
AcDbSymbolTableRecord
100
AcDbLayerTableRecord
2
1
70
0
62
7
6
DASHED
0
LAYER
5
51
100
AcDbSymbolTableRecord
100
AcDbLayerTableRecord
2
0
70
0
62
7
6
CONTINUOUS
0
ENDTAB
0
TABLE
2
STYLE
5
3
100
AcDbSymbolTable
70
1
0
STYLE
5
11
100
AcDbSymbolTableRecord
100
AcDbTextStyleTableRecord
2
STANDARD
70
0
0
ENDTAB
0
TABLE
2
VIEW
5
6
100
AcDbSymbolTable
70
0
0
ENDTAB
0
TABLE
2
UCS
5
7
100
AcDbSymbolTable
70
0
0
ENDTAB
0
TABLE
2
APPID
5
9
100
AcDbSymbolTable
70
2
0
APPID
5
12
100
AcDbSymbolTableRecord
100
AcDbRegAppTableRecord
2
ACAD
70
0
0
ENDTAB
0
TABLE
2
DIMSTYLE
5
A
100
AcDbSymbolTable
70
1
0
ENDTAB
0
TABLE
2
BLOCK_RECORD
5
1
100
AcDbSymbolTable
70
1
0
BLOCK_RECORD
5
1F
100
AcDbSymbolTableRecord
100
AcDbBlockTableRecord
2
*MODEL_SPACE
0
BLOCK_RECORD
5
1B
100
AcDbSymbolTableRecord
100
AcDbBlockTableRecord
2
*PAPER_SPACE
0
ENDTAB
0
ENDSEC
0
SECTION
2
BLOCKS
0
BLOCK
5
20
100
AcDbEntity
100
AcDbBlockBegin
2
*MODEL_SPACE
0
ENDBLK
5
21
100
AcDbEntity
100
AcDbBlockEnd
0
BLOCK
5
1C
100
AcDbEntity
100
AcDbBlockBegin
2
*PAPER_SPACE
0
ENDBLK
5
1D
100
AcDbEntity
100
AcDbBlockEnd
0
ENDSEC
0
SECTION
2
ENTITIES
0
LWPOLYLINE
5
100
100
AcDbEntity
8
0
100
AcDbPolyline
90
16
70
1
43
0.0
10
-0.26672805894956575
20
14.286833897842047
42
0.99999999999999989
10
-40.966728058949556
20
14.286834237180006
10
-40.966728058949556
20
5.343346837579988
10
-40.966728058949556
20
-15.815222587300159
42
-0.41421356237309531
10
-45.966728058949556
20
-20.815222587300166
10
-74.616728058949519
20
-20.815222587300163
42
0.41421356237309531
10
-80.616728058949519
20
-26.815222587300159
10
-80.616728058949519
20
-40.81522258730017
42
0.41421356237309681
10
-74.616728058949505
20
-46.815222587300163
10
33.383271941050474
20
-46.815222587300163
42
0.41421356237309548
10
39.383271941050474
20
-40.815222587300156
10
39.383271941050474
20
-26.815222587300163
42
0.41421356237309531
10
33.383271941050452
20
-20.815222587300163
10
4.733271941050428
20
-20.815222587300163
42
-0.41421356237309576
10
-0.2667280589495713
20
-15.815222587300168
10
-0.26672805894956519
20
5.343346837579988
0
LWPOLYLINE
5
101
100
AcDbEntity
8
0
100
AcDbPolyline
90
48
70
1
43
0.0
10
-29.155262779242012
20
14.595506467968198
42
0.70085391462363067
10
-29.150626207317604
20
13.843529610033034
10
-28.960089795881586
20
13.775694330164949
42
0.39385885141396515
10
-27.739468041198919
20
13.341125327223335
10
-24.550888180816891
20
12.20591864635754
42
0.22064102093345236
10
-24.21568360425464
20
12.236943887980992
42
-0.39573948059783798
10
-23.815634802064661
20
12.144523417328514
42
0.084697998046001297
10
-22.924292864320023
20
11.20500934452053
42
-0.33215703994260354
10
-22.822775853471519
20
10.860679932075461
42
0.17957882990291549
10
-22.822583938279895
20
10.582330247932312
10
-21.50678029880179
20
7.1077065901735175
42
0.3687374125767709
10
-21.069944622453029
20
5.9541609317981523
10
-20.9908040519873
20
5.7451755709294101
42
0.69328224865757759
10
-20.241638658355939
20
5.7478811233131761
10
-20.167706676895563
20
5.9474527762201301
42
0.38133746856265349
10
-19.728228587001873
20
7.1337779237948578
10
-18.44932260720255
20
10.586050881444786
42
0.1710810396596272
10
-18.442464619259678
20
10.851908214480954
42
-0.32294497162573382
10
-18.3348569557605
20
11.185936904401835
42
0.07289816445761145
10
-17.540933075585194
20
11.971238154027631
42
-0.32792022541491089
10
-17.200647344962839
20
12.073427191612938
42
0.18014878557684177
10
-16.921498823850072
20
12.077466105454722
10
-13.437600411943087
20
13.396781997327764
42
0.36873741257677639
10
-12.284054753567712
20
13.833617673676535
10
-12.075069392698969
20
13.91275824414226
42
0.69328224865757626
10
-12.077774945082741
20
14.661923637773615
10
-12.277346597989695
20
14.735855619233995
42
0.38133746856264927
10
-13.463671745564413
20
15.175333709127681
10
-16.677774954087329
20
16.36600891456402
42
0.22398566229097641
10
-17.017772513644502
20
16.336724586378988
42
-0.3957394805977591
10
-17.417821315834459
20
16.429145057031491
42
0.095983923557465836
10
-18.449427452153486
20
17.468863162218454
42
-0.40226076924548954
10
-18.535207991679485
20
17.875393797689028
42
0.23386732372161972
10
-18.500680171093386
20
18.228492891812039
10
-19.726675819097327
20
21.465961884186481
42
0.36873741257677067
10
-20.163511495446087
20
22.619507542561841
10
-20.242652065911816
20
22.828492903430586
42
0.69328224865757226
10
-20.991817459543171
20
22.82578735104682
10
-21.06574944100355
20
22.62621569813987
42
0.38133746856265621
10
-21.505227530897244
20
21.439890550565135
10
-22.695902736333579
20
18.225787342042228
42
0.22398566229097827
10
-22.666618408148544
20
17.885789782485059
42
-0.39573948059780345
10
-22.759038878801032
20
17.485740980295105
42
0.093498412101077275
10
-23.777247148970506
20
16.485383550161892
42
-0.33775186125928197
10
-24.316716450100575
20
16.311644770571917
42
0.17532504407081115
10
-24.52082685911973
20
16.310166145314607
10
-27.784023076914622
20
15.102841010096304
42
0.37193738856314917
10
-28.948480937798685
20
14.672012107843571
0
CIRCLE
5
102
100
AcDbEntity
8
0
100
AcDbCircle
10
-20.616728058949558
20
-33.815222587300156
30
0
40
1.5000000000000016
210
0
220
0
230
1
0
CIRCLE
5
103
100
AcDbEntity
8
0
100
AcDbCircle
10
-61.316728058949565
20
-43.815222587300156
30
0
40
1.5000000000000016
210
0
220
0
230
1
0
CIRCLE
5
104
100
AcDbEntity
8
0
100
AcDbCircle
10
-40.966728058949556
20
-43.815222587300156
30
0
40
1.5000000000000016
210
0
220
0
230
1
0
CIRCLE
5
105
100
AcDbEntity
8
0
100
AcDbCircle
10
-20.616728058949558
20
-43.815222587300156
30
0
40
1.5000000000000016
210
0
220
0
230
1
0
CIRCLE
5
106
100
AcDbEntity
8
0
100
AcDbCircle
10
-0.26672805894955687
20
-43.815222587300156
30
0
40
1.5000000000000016
210
0
220
0
230
1
0
CIRCLE
5
107
100
AcDbEntity
8
0
100
AcDbCircle
10
20.083271941050445
20
-43.815222587300156
30
0
40
1.5000000000000016
210
0
220
0
230
1
0
CIRCLE
5
108
100
AcDbEntity
8
0
100
AcDbCircle
10
-61.316728058949565
20
-38.815222587300156
30
0
40
1.5000000000000016
210
0
220
0
230
1
0
CIRCLE
5
109
100
AcDbEntity
8
0
100
AcDbCircle
10
-40.966728058949556
20
-38.815222587300156
30
0
40
1.5000000000000016
210
0
220
0
230
1
0
CIRCLE
5
110
100
AcDbEntity
8
0
100
AcDbCircle
10
-20.616728058949558
20
-38.815222587300156
30
0
40
1.5000000000000016
210
0
220
0
230
1
0
CIRCLE
5
111
100
AcDbEntity
8
0
100
AcDbCircle
10
-0.26672805894955687
20
-38.815222587300156
30
0
40
1.5000000000000016
210
0
220
0
230
1
0
CIRCLE
5
112
100
AcDbEntity
8
0
100
AcDbCircle
10
20.083271941050445
20
-38.815222587300156
30
0
40
1.5000000000000016
210
0
220
0
230
1
0
CIRCLE
5
113
100
AcDbEntity
8
0
100
AcDbCircle
10
-61.316728058949565
20
-33.815222587300156
30
0
40
1.5000000000000016
210
0
220
0
230
1
0
CIRCLE
5
114
100
AcDbEntity
8
0
100
AcDbCircle
10
-40.966728058949556
20
-33.815222587300156
30
0
40
1.5000000000000016
210
0
220
0
230
1
0
CIRCLE
5
115
100
AcDbEntity
8
0
100
AcDbCircle
10
-0.26672805894955687
20
-33.815222587300156
30
0
40
1.5000000000000016
210
0
220
0
230
1
0
CIRCLE
5
116
100
AcDbEntity
8
0
100
AcDbCircle
10
20.083271941050445
20
-33.815222587300156
30
0
40
1.5000000000000016
210
0
220
0
230
1
0
CIRCLE
5
117
100
AcDbEntity
8
0
100
AcDbCircle
10
-61.316728058949565
20
-28.815222587300156
30
0
40
1.5000000000000016
210
0
220
0
230
1
0
CIRCLE
5
118
100
AcDbEntity
8
0
100
AcDbCircle
10
-40.966728058949556
20
-28.815222587300156
30
0
40
1.5000000000000016
210
0
220
0
230
1
0
CIRCLE
5
119
100
AcDbEntity
8
0
100
AcDbCircle
10
-20.616728058949558
20
-28.815222587300156
30
0
40
1.5000000000000016
210
0
220
0
230
1
0
CIRCLE
5
120
100
AcDbEntity
8
0
100
AcDbCircle
10
-0.26672805894955687
20
-28.815222587300156
30
0
40
1.5000000000000016
210
0
220
0
230
1
0
CIRCLE
5
121
100
AcDbEntity
8
0
100
AcDbCircle
10
20.083271941050445
20
-28.815222587300156
30
0
40
1.5000000000000016
210
0
220
0
230
1
0
CIRCLE
5
122
100
AcDbEntity
8
0
100
AcDbCircle
10
-61.316728058949565
20
-23.815222587300156
30
0
40
1.5000000000000016
210
0
220
0
230
1
0
CIRCLE
5
123
100
AcDbEntity
8
0
100
AcDbCircle
10
-40.966728058949556
20
-23.815222587300156
30
0
40
1.5000000000000016
210
0
220
0
230
1
0
CIRCLE
5
124
100
AcDbEntity
8
0
100
AcDbCircle
10
-20.616728058949558
20
-23.815222587300156
30
0
40
1.5000000000000016
210
0
220
0
230
1
0
CIRCLE
5
125
100
AcDbEntity
8
0
100
AcDbCircle
10
-0.26672805894955687
20
-23.815222587300156
30
0
40
1.5000000000000016
210
0
220
0
230
1
0
CIRCLE
5
126
100
AcDbEntity
8
0
100
AcDbCircle
10
20.083271941050445
20
-23.815222587300156
30
0
40
1.5000000000000016
210
0
220
0
230
1
0
LINE
5
127
100
AcDbEntity
8
0
100
AcDbLine
10
-40.966728058949556
20
5.343346837579988
30
0
11
-40.966728058949556
21
14.286834237180006
31
0
0
LINE
5
128
100
AcDbEntity
8
0
100
AcDbLine
10
-0.26672805894956519
20
5.343346837579988
30
0
11
-0.26672805894956353
21
14.286833897842047
31
0
0
CIRCLE
5
129
100
AcDbEntity
8
0
100
AcDbCircle
10
32.883271941050445
20
-28.815222587300156
30
0
40
1.5000000000000016
210
0
220
0
230
1
0
CIRCLE
5
130
100
AcDbEntity
8
0
100
AcDbCircle
10
32.883271941050445
20
-33.815222587300156
30
0
40
1.5000000000000016
210
0
220
0
230
1
0
CIRCLE
5
131
100
AcDbEntity
8
0
100
AcDbCircle
10
32.883271941050445
20
-23.815222587300156
30
0
40
1.5000000000000016
210
0
220
0
230
1
0
CIRCLE
5
132
100
AcDbEntity
8
0
100
AcDbCircle
10
32.883271941050445
20
-38.815222587300156
30
0
40
1.5000000000000016
210
0
220
0
230
1
0
CIRCLE
5
133
100
AcDbEntity
8
0
100
AcDbCircle
10
32.883271941050445
20
-43.815222587300156
30
0
40
1.5000000000000016
210
0
220
0
230
1
0
CIRCLE
5
134
100
AcDbEntity
8
0
100
AcDbCircle
10
-74.116728058949562
20
-23.815222587300156
30
0
40
1.5000000000000016
210
0
220
0
230
1
0
CIRCLE
5
135
100
AcDbEntity
8
0
100
AcDbCircle
10
-74.116728058949562
20
-33.815222587300156
30
0
40
1.5000000000000016
210
0
220
0
230
1
0
CIRCLE
5
136
100
AcDbEntity
8
0
100
AcDbCircle
10
-74.116728058949562
20
-28.815222587300156
30
0
40
1.5000000000000016
210
0
220
0
230
1
0
CIRCLE
5
137
100
AcDbEntity
8
0
100
AcDbCircle
10
-74.116728058949562
20
-43.815222587300156
30
0
40
1.5000000000000016
210
0
220
0
230
1
0
CIRCLE
5
138
100
AcDbEntity
8
0
100
AcDbCircle
10
-74.116728058949562
20
-38.815222587300156
30
0
40
1.5000000000000016
210
0
220
0
230
1
0
ENDSEC
0
SECTION
2
OBJECTS
0
DICTIONARY
5
C
100
AcDbDictionary
3
ACAD_GROUP
350
D
3
ACAD_MLINESTYLE
350
17
0
DICTIONARY
5
D
100
AcDbDictionary
0
DICTIONARY
5
1A
330
C
100
AcDbDictionary
0
DICTIONARY
5
17
100
AcDbDictionary
0
ENDSEC
0
EOF
